<?xml version="1.0" encoding="utf-8"?>
<!-- Generator: Adobe Illustrator 25.2.1, SVG Export Plug-In . SVG Version: 6.00 Build 0)  -->
<svg version="1.1" id="Layer_1" xmlns="http://www.w3.org/2000/svg" xmlns:xlink="http://www.w3.org/1999/xlink" x="0px" y="0px"
	 viewBox="0 0 1366 768" style="enable-background:new 0 0 1366 768;" xml:space="preserve">
<style type="text/css">
	.st0{fill:#D6304C;}
	.st1{fill:#5EAAA8;}
	.st2{fill:#EAEAEA;}
	.st3{fill:#1E0409;}
</style>
<path class="st0" d="M760.2,581.6c7.8-0.1,14.9-0.8,21.2-2.3c-4.2,10.6-8.9,21-14.1,31.2l-28,55.1c-0.1,0.2-0.1,0.3-0.2,0.5
	c-0.4,1.7,1.3,3.4,3.1,2.7l5.7-2.3l1.3-0.5c2.4-1,4.6,1.7,3.2,3.8l-12.7,20.2c-3,4.7-8.8,6.7-14,4.7l-6-2.3l2.9-10.5l5.3-18.9
	l3.9-13.9c3.4-12.1,7.4-24.1,11.9-35.9l12.2-31.6c1.1,0,2.3,0.1,3.4,0.1C759.7,581.6,759.9,581.6,760.2,581.6z"/>
<path class="st0" d="M951.5,134.8c0,1.4-0.3,2.8-0.8,4.1l-56.8,147.8c-3.7-8.6-9.1-16.6-15.7-23.2l51.1-132.8
	c2.3-5.9,8.9-8.9,14.9-6.6C948.7,125.8,951.5,130.2,951.5,134.8z"/>
<path class="st1" d="M929,389.1c-1.3-11.9-8.4-22.6-14.9-32.3c-3.8-5.7-7.7-11.8-12.6-16.5c-0.5-0.5-1-0.9-1.5-1.3
	c0.2-2.3,0.3-4.7,0.2-7c-0.3-10.3-3.9-20.1-10.8-27.9c-2-2.2-4.2-4.2-6.5-6c-3.4-10.8-10-20.6-18.7-27.8c-2.3-3.9-5.6-7.5-8.1-10.4
	c-7.1-8.2-14.4-16.3-22-24c-3.8-3.9-8-7.2-13-9.3c-3.9-1.6-8-2.4-12.2-3.1c-8-8.7-18.1-15.5-29.5-18.7c-14.4-4.1-30.2-2-42.9,5.9
	c-1.1,0.7-2.1,1.4-3.1,2.2c-4.6-0.2-9.1-0.3-13.7-0.2c-0.3-0.7-0.8-1.2-1.6-1.4c-1.1-0.3-2.7,0.3-3,1.6c-1.6,0.1-3.2,0.2-4.9,0.3
	c-0.2,0-0.3-0.1-0.5-0.1c-3.5-1.1-7.2-1.6-10.9-1.4c-2.2,0.1-4.3,0.5-6.4,1c-6.2-4.2-13.3-6.9-20.6-8.7c-4.9-1.2-9.8-2.1-14.8-2.9
	c-5.2-0.8-10.5-1.7-15.7-2.2c-9.8-0.8-20.1,0-28.6,5.3c-3.8,2.3-7.1,5.4-9.4,9.3c-2.6,4.2-3.6,9.2-3.6,14.1
	c-6.2,6.1-11,13.7-13.5,22c-1.7,5.5-2.3,11.1-2.4,16.8c-6.3,7.2-11.5,15.5-15.2,24.4c-3.3,8-5,16.4-5.8,25c-1.2,0.2-1.9,1.3-2,2.4
	c-0.2,3.1-2.2,5.8-4,8.2c-2,2.8-4.1,5.6-5.2,8.9c-1.6,4.8-1,9.9-1.1,14.8c-5.4,5.1-11.6,9.5-16.2,15.4c-5.8,7.5-7.2,17.1-4.3,26.1
	c1.7,5.4,4.7,10.2,8.4,14.3c-1.1,2.4-2.2,4.7-3.2,7.1c-2.1,4.7-4.2,9.5-4.1,14.8c0.1,4.6,1.7,8.9,3.6,13c3.1,6.3,7,12.2,11.5,17.6
	c0.3,1.2,0.6,2.3,1,3.5c4.1,12.9,12.3,24.3,22.5,33.3c-0.5,3.1-0.7,6.3-0.5,9.5c0.8,13.4,7.8,25.4,16.6,35.2
	c4.6,5.2,9.8,10.3,16,13.6c6.6,3.5,14,4,21.3,3.1c7.4-0.9,14.8-2.6,22.1-4.2c0.5-0.1,0.9-0.2,1.4-0.3c3,1.1,6.4,1.5,9.6,1
	c0.4-0.1,0.7-0.2,1-0.5c2.2,0.9,4.5,1.8,6.7,2.6c0.1,0.6,0.5,1.2,1.2,1.6c6.6,3.2,13.8,5.1,21,5.5c-1.5,4.2,3.8,8.2,8.2,7.4
	c2.4-0.5,4.5-2,6.9-2.3c2-0.2,3.8,1.1,5.2,2.3c3.7,3.1,7.3,6.4,12.5,5.6c3.7-0.5,6.9-2.8,9.9-4.9c0.7-0.5,1.4-1,2.2-1.4
	c0.9,0.4,2,0.2,2.8-0.4c0.3-0.3,0.6-0.4,1-0.6c0.7-0.1,1.5-0.2,2.2-0.2c0.2,0,0.4,0,0.6,0c1.5,0.1,3.5,0.7,5.3,1.1
	c2.6,0.6,5.3,1,7.8,0.6c2.7,0.2,5.5,0.3,8.2,0.3c11.2-0.1,23-1.7,32.7-7.6c8.4,2.8,17.8,2.9,26.2-0.2c13.1-4.9,21.8-16.3,27.5-28.6
	c9.7-6.5,18.2-14.6,24.4-24.5c3.1-1.9,6.1-4.1,8.8-6.6c9.5-8.6,16-20.1,19.1-32.5c6.4-10,10.2-21.8,9.7-33.8
	c-0.1-1.4-0.2-2.7-0.4-4.1c2.8-2.8,5.4-5.6,7.9-8.7C922.9,413.5,930.4,401.9,929,389.1z M606.3,218.6c1.4-3.6,4-6.6,7.1-8.9
	c7.1-5.4,16.2-6.6,24.9-6.2c0,0,0,0,0.1,0c-2.3,0.2-4.6,0.5-6.9,1.1c-8.2,1.9-15.5,6.4-20.7,13c-0.7,0.9-1.4,1.8-2,2.8
	c-1.2,0.8-2.4,1.6-3.5,2.4C605.3,221.4,605.7,220,606.3,218.6z M589.9,255.3c1.6-7.8,5.1-15,10.3-21c0.3,2.2,0.6,4.5,1,6.7
	c-0.6,3.5-0.9,7.1-1.1,10.6c-3.9,2.8-7.6,5.8-11,9.1C589.3,258.8,589.6,257,589.9,255.3z M598.8,258.7c0.1-0.1,0.3-0.2,0.4-0.3
	c-1,1.7-1.7,3.5-2.2,5.4c-0.3,1.1-0.3,2.3-0.6,3.5c-0.6,0.6-1.2,1.2-1.8,1.9c0,0-0.1,0-0.1,0c-1.9,0.4-3.9,0.5-5.7,0.9
	c0-0.7,0-1.4,0-2.1C591.9,264.7,595.2,261.6,598.8,258.7z M582.1,283.8c0.2-0.5,0.4-1,0.7-1.6c0,0.3,0.1,0.7,0.3,1
	c-0.5,0.6-0.9,1.2-1.4,1.9C581.8,284.6,581.9,284.2,582.1,283.8z M582.5,496.7c0.6,0.5,1.2,0.8,1.9,0.7c0.3,1,0.7,2,1.1,3
	c-3.6-2.2-7-4.6-10.3-7.3c0.1-0.5,0.3-1,0.4-1.5c0.2-0.5,0.3-1,0.5-1.5C578,492.5,580.2,494.8,582.5,496.7z M571.2,297.8
	c1.3-4,2.9-7.9,4.9-11.7c-0.8,3.1-1.3,6.3-1.6,9.5c-1.8,2.8-3.4,5.7-5,8.6C570,302,570.6,299.9,571.2,297.8z M536.6,394.4
	c-3.8-7.6-4.3-16.6,0.3-23.9c3.2-5.1,7.8-8.9,12.4-12.7c-0.2,0.5-0.4,0.9-0.6,1.3c-0.8,1.5-1.9,2.8-2.8,4.3
	c-1.7,2.8-2.7,6.2-0.7,9.1c0.5,0.7,1,1.2,1.6,1.8c0.4,0.4,1,0.8,1.3,1.3c0,0.1,0.1,0.1,0.1,0.2c0,0.5-0.1,0.9-0.1,1.4
	c-0.2,0.5-0.6,1-0.8,1.5c-0.8,1.3-1.9,2.5-2.6,3.8c-0.8,1.5-1.3,3.1-1.5,4.7c-0.3,2.4,0.2,4.9,1.2,7.1c-1.3,2.1-2.5,4.3-3.6,6.6
	C539.2,398.9,537.8,396.7,536.6,394.4z M548.3,416.7c0.2,1.2,0.4,2.5,0.6,3.7c-0.5-0.4-0.8-0.9-0.9-1.3
	C547.8,418.3,547.9,417.5,548.3,416.7z M547.6,407.5c-1.1-0.9-2.2-1.8-3.2-2.8c1-2,2-4,3.1-5.9c0.2,0.2,0.3,0.3,0.5,0.4
	c0.1,2.2,0.3,4.4,0.5,6.5C548.2,406.4,547.9,407,547.6,407.5z M545,448c-1.3-2-2.6-4-3.8-6.1c-2-3.6-3.9-7.3-4.7-11.3
	c-0.9-4.6,0.4-8.9,2.1-13.1c1.1-2.7,2.3-5.4,3.5-8.1c0.9,0.8,1.9,1.7,2.9,2.4c-1.3,2.3-2.5,4.8-2.1,7.4c0.3,2.8,2.3,4.7,4.5,6.3
	c0.9,0.6,2,1.3,2.7,1.9c0.1,0.1,0.2,0.2,0.3,0.2c-0.9,1.5-1.8,3.1-2.5,4.8C545.8,437.5,544.9,442.7,545,448z M551.1,438.4
	c0.2,0.5,0.5,1,0.9,1.5c0.4,0.5,0.9,0.9,1.5,1.2c2.2,6.2,5.1,12.2,8.7,17.8c1.9,4.4,3.9,8.7,6.2,12.9c-6.5-4.5-12.3-9.9-17.4-15.9
	C549.6,450.1,549.5,444.1,551.1,438.4z M572.9,485.1c-0.7,1.4-1.2,2.9-1.7,4.3c-0.8-0.8-1.6-1.6-2.4-2.4
	c-5.6-5.8-10.5-12.5-13.9-19.8c4.8,4.5,10,8.5,15.6,11.9c0.7,2,1.5,3.9,2.5,5.8C572.9,485,572.9,485.1,572.9,485.1z M612,551.5
	c-6.7-1.1-12.2-5-17.1-9.6c-8.7-8.3-16.6-18.5-19.6-30.4c-1-4.2-1.4-8.5-1-12.8c3.4,2.7,7,5.1,10.7,7.2c1.6,0.9,3.2,1.8,4.9,2.6
	c-2.8,12.7-0.7,27,9.5,35.6c5,4.2,11,6.7,17.4,7.8C615.2,551.9,613.6,551.8,612,551.5z M625.2,547.5c-6.9,0.2-13.9-1.3-19.7-5
	c-6.2-4-9.8-10.3-11.1-17.5c-0.8-4.3-0.8-8.7-0.1-13c0.3,0.3,0.6,0.5,1,0.8c2.1,1.6,4.5,2.9,7,3.9c3.4,3.3,6.9,6.4,10.6,9.4
	c0.9,1.8,1.9,3.4,3.4,4.9c2.5,2.4,5.7,4.1,9.2,4.6c0.1,0,0.1,0,0.2,0c3.2,2.2,6.5,4.2,9.8,6.2c0,0,0,0.1,0,0.1
	c0.6,1.2,1.3,2.4,2.1,3.5C633.6,546.5,629.5,547.4,625.2,547.5z M608.8,255.3c0.5-0.3,1-0.7,1.5-1c-0.5,0.4-1,0.8-1.4,1.2
	C608.8,255.5,608.8,255.4,608.8,255.3z M618.5,247c0.8-0.4,1.7-0.7,2.5-1c-0.5,0.3-1,0.7-1.4,1C619.2,247,618.9,247,618.5,247z
	 M637.5,235.4c1.8-1.7,4-2.9,6.3-3.4C641.7,233.1,639.5,234.2,637.5,235.4z M656.5,224.8c-1.4,1.4-2.6,2.7-4.7,2.7
	c-2.2-0.1-4.3-0.8-6.5-0.7c-4.1,0.2-8,2-11,4.8c-2,1.8-3.5,4-4.5,6.4c-7.8,1.9-15.4,4.9-22.4,8.9c-0.4-2-0.7-4-1.1-6
	c1-5.9,2.8-11.7,6-16.8c3.6-2.2,7.5-3.8,11.5-4.9c8.5-2.3,17.6-1.9,26,0.8c2.8,0.9,5.6,2.1,8.3,3.5
	C657.5,223.9,657,224.3,656.5,224.8z M662.7,220.6c-10.7-6.6-23.7-9.3-36.2-7.1c-1.9,0.3-3.9,0.8-5.7,1.4c2.7-2,5.8-3.5,9.1-4.6
	c7.4-2.3,15.4-2.3,22.9-0.5c7,1.7,13.5,4.8,19.6,8.6C669,218.3,665.7,219.1,662.7,220.6z M681.4,217.9c-0.2,0-0.3,0.1-0.5,0.1
	c-7-5-14.7-9.2-22.8-11.9c3.1,0.5,6.1,1.1,9.1,1.7c6.7,1.5,13.4,3.5,19.3,6.8C684.7,215.6,683,216.6,681.4,217.9z M693.5,564.5
	c0.3-0.2,0.6-0.5,0.7-0.9c0.4,0.1,0.7,0.2,1.1,0.4C694.8,564.2,694.1,564.4,693.5,564.5z M840.6,256.3c-1.7-1.5-3.5-3-5.2-4.4
	c1.5,0.7,2.8,1.6,4,2.8C839.8,255.2,840.2,255.8,840.6,256.3z M826.7,235.7c3.8,3.3,7.2,7.1,10.7,10.8c0.5,0.5,1,1.1,1.5,1.6
	c-2.6-1.5-5.6-2.3-8.7-2.4c-0.8,0-1.4,0.3-1.8,0.8c-1.2-0.9-2.4-1.7-3.6-2.6c-1.6-1.1-3-2.5-4.1-4.1l-3.9-5.9c-0.9-1.5-1.9-3-3-4.5
	C818.5,230.7,822.9,232.5,826.7,235.7z M812.2,236C812.2,236,812.2,236,812.2,236C812.2,236.1,812.2,236.1,812.2,236
	C812.2,236,812.2,236,812.2,236z M745.3,213.8C745.2,213.8,745.2,213.8,745.3,213.8C745.2,213.8,745.2,213.8,745.3,213.8
	C745.3,213.8,745.3,213.8,745.3,213.8z M750.6,564.3c-0.8-0.1-1.7-0.2-2.5-0.3c1.5-0.2,2.9-0.4,4.3-0.6
	C751.9,563.8,751.3,564.1,750.6,564.3z M755.1,208.5c14.2-2.9,28.7,1.2,40.3,9.5c1.8,1.3,3.5,2.7,5.2,4.1c-4.1-0.6-8.2-1.1-12.3-1.5
	c-2.7-1.2-5.8-1.5-8.6-0.7c0,0,0,0-0.1,0c-3.1-5.3-10.9-7.5-16.2-4.5c-2-3.3-5.3-5.7-9-6.8C754.6,208.7,754.8,208.6,755.1,208.5z
	 M778.6,562.2c-5.9,1.6-12,2.2-18.1,2.4c-0.7,0-1.4,0-2.1,0c0.6-0.6,1.3-1.1,2.1-1.4c2.1-0.8,4.6-0.3,6.8,0
	c4.8,0.6,9.5-0.2,13.7-2.7c1-0.6,2-1.3,2.9-2.1c0.7,0.4,1.4,0.8,2.1,1.2C783.5,560.6,781,561.5,778.6,562.2z M791.2,556.4
	c-1.1-0.5-2.3-1-3.3-1.6c2.1-0.4,4.2-0.9,6.3-1.3c0.2,0,0.3,0,0.5,0C793.6,554.6,792.4,555.5,791.2,556.4z M833.5,543.8
	c-3.7,5-8.5,9.1-14.1,11.9c-5.7,2.8-12.3,3.8-18.6,3.1c-1.3-0.1-2.6-0.4-3.9-0.6c2.1-1.9,3.9-4,5.2-6.4c0.3-0.1,0.7-0.3,1-0.4
	c6.6-1.7,13.1-3.7,19.4-6.3c5-2,9.9-4.3,14.7-6.9C836.1,540.1,834.9,542,833.5,543.8z M841.6,529.7c-7.6,5-15.9,8.9-24.5,12
	c0.1-0.2,0.3-0.4,0.4-0.6c0.6-1,1.1-2.1,1.5-3.2c1.7-1.1,3.4-2.2,5.1-3.4c1,0,2.1,0,3.1,0c2.6-0.1,5.1-0.5,7.2-2.1
	c2.2-1.7,3.2-4.1,4.6-6.4c0.6-1,1.3-2,2.3-2.7c1.1-0.7,2.3-1.2,3.5-1.7C843.9,524.4,842.8,527.1,841.6,529.7z M878.6,301.2
	c0.3,1.2,0.6,2.5,0.9,3.7c0,0.1,0,0.2,0.1,0.4c-1-1.8-2-3.6-3-5.4C877.3,300.3,878,300.8,878.6,301.2z M847.1,258.1
	c-0.3-0.7-0.5-1.3-0.9-2c0.6,0.6,1.1,1.3,1.7,1.9c1.3,1.5,2.7,3.1,4,4.6c-1.2-0.5-2.4-1-3.6-1.4
	C847.9,260.2,847.5,259.2,847.1,258.1z M851,522.7c-0.6,0.5-1.2,1-1.8,1.5c0.8-2.2,1.6-4.4,2.3-6.6c0.8-0.6,1.5-1.3,2.2-2.1
	c1.4-0.4,2.7-0.8,4.1-1.3c0.8-0.3,1.7-0.6,2.5-0.9C857.4,516.7,854.3,519.9,851,522.7z M870.4,496.7c-1.2,2.9-2.6,5.7-4.2,8.3
	c-2.2,1.3-4.5,2.4-7,3.4c-0.1,0-0.2,0.1-0.3,0.1c2.4-3.8,4.5-7.7,6.6-11.6c2-1,4-2,6-3.2C871.2,494.7,870.8,495.7,870.4,496.7z
	 M873.6,486.6c-1.2,0.8-2.5,1.6-3.7,2.3c0.1-0.1,0.1-0.3,0.2-0.4c1.5-2.2,3-4.5,4.4-6.8C874.3,483.4,874,485,873.6,486.6z
	 M873.3,294.5c-2.4-3.8-5-7.5-7.7-11.1c0.7-1.3,1-2.6,1.2-3.9c3.8,4.3,7,9.2,9.3,14.5C875.1,293.7,874,293.8,873.3,294.5z
	 M875,498.6c1.2-2.9,2.2-5.9,3-8.9c3.6-2.5,7.1-5.3,10.2-8.4C884.9,487.8,880.4,493.7,875,498.6z M893.2,467.4
	c-3.7,5.6-8.4,10.7-13.7,14.9c0.5-3.5,0.8-7.1,0.8-10.6c4.1-7.8,7.7-16,10.7-24.5c1-0.7,2-1.5,2.9-2.4
	C895.1,452.3,894.9,460,893.2,467.4z M894.6,342.6c-0.2-0.7-0.4-1.3-0.6-2c0.3,0.2,0.5,0.3,0.8,0.5
	C894.7,341.6,894.6,342.1,894.6,342.6z M895.2,335.6c-0.7-0.4-1.4-0.7-2.1-1c0.3-3.8,0-7.7-1-11.4c-0.3-1.3-0.8-2.6-1.3-3.9
	c-0.6-1.4-1.1-3.2-2.3-4.1c-1.1-0.9-2.1-1.7-3.2-2.6c-0.1-2.1-0.3-4.1-0.6-6.2c3,3.1,5.4,6.7,7.2,10.7
	C894.7,322.9,895.5,329.3,895.2,335.6z M897.2,424.3c0.3-1.7,0.7-3.4,1-5.1c0.5,1,1,2.1,1.5,3.1C898.9,423,898.1,423.6,897.2,424.3z
	 M901.3,427.4c0.2,0.8,0.4,1.6,0.5,2.5c-1,0.9-1.9,1.8-2.9,2.7c0-0.8,0-1.7-0.1-2.5c0-0.2-0.1-0.5-0.1-0.7
	C899.6,428.7,900.4,428.1,901.3,427.4z M899.9,453.7c-0.1,0.3-0.2,0.5-0.3,0.8c0-4.9-0.6-9.8-1.8-14.5c1.6-1.3,3.1-2.6,4.7-3.9
	C902.7,442,901.8,448.1,899.9,453.7z M900.4,413.1c-0.1-0.2-0.2-0.3-0.4-0.4c0.2-1.2,0.3-2.5,0.3-3.7c0-2.4,0.1-4.8,0-7.2
	c0.4-5,0.5-10,0.4-15c0.6-0.5,1.3-1.1,1.8-1.7c0.7-0.9,0.6-1.8,0.5-2.9c-0.2-3.3-0.5-6.6-1.1-9.8c-0.1-0.3-0.1-0.6-0.2-0.9
	c4,6.4,7.4,13.1,8.9,20.6c1,5.4,1,11.1-0.7,16.4c-1.3,4-3.6,7.4-6.5,10.4C902.7,416.8,901.6,414.9,900.4,413.1z M906,425.7
	c-0.2-0.6-0.3-1.3-0.5-1.9c3.5-3.3,6.4-7.1,8.3-11.5c5-11.8,2.1-25.2-3.5-36.3c-3.1-6.2-7.1-11.8-11.1-17.5
	c-0.3-2.3-0.7-4.7-1.3-6.9c0.5-2.2,1-4.4,1.3-6.6c3.6,3.8,6.5,8.1,9.4,12.4c3.3,4.9,6.5,9.8,9.3,15c2.6,4.6,4.8,9.4,5.8,14.6
	c2.2,11.6-4,22.2-11,31C910.6,420.7,908.4,423.2,906,425.7z"/>
<circle class="st2" cx="671.6" cy="332.7" r="60.5"/>
<circle class="st2" cx="788.5" cy="400.9" r="60.5"/>
<g>
	<path class="st3" d="M487.3,435.5c1.5,2,1.2,4.8-0.7,6.3l-13.4,10.5c1.1,1.4,2.2,3,3,4.8c1.6,3.6,2.5,8,1.7,13.2
		c2.5-0.5,5-1,7.3-1.5c24.3-5.2,34.8,4.2,39.2,13.9c0.3,0.7,0.6,1.5,0.9,2.2c5.6,15.1-0.2,25.7-7.6,30.5c-7.8,5.1-18,4.7-23.8-1
		c-8.5-8.4-7.3-18-2.5-23.4c1.6-1.8,4.4-2,6.2-0.3c1.8,1.7,2,4.5,0.4,6.3c-2.6,2.9-1.8,7.3,2,11c2.7,2.7,8.4,2.6,12.8-0.2
		c5.9-3.9,7.4-11.1,4.2-19.9c-1.4-3.8-5.8-15.5-29.9-10.4c-3.9,0.8-8.1,1.7-12.5,2.6c-1.2,4.3-1.8,12.8,1.9,19.5
		c1.2,2.2,0.4,4.9-1.7,6.1c-2.1,1.2-4.8,0.4-6-1.8c-3.8-6.9-4.4-15.3-3.6-21.8c-20.9,4.3-41.3,8.4-41.6,8.4c-2,0.4-4-0.7-4.9-2.6
		l0,0c-0.9-1.9-0.3-4.1,1.3-5.4l61.1-47.9C483,433.2,485.8,433.6,487.3,435.5z M466.2,457.7L440.3,478c8.2-1.6,18.1-3.7,27.8-5.7
		C470.9,464.9,468.3,460.1,466.2,457.7z"/>
	<path class="st3" d="M418.9,389.3l59.8-6.7c2.4-0.3,4.6,1.5,4.9,4c0.3,2.5-1.5,4.7-3.9,5l-43.2,4.9l15.6,6.8c1.5,0.6,2.5,2,2.7,3.6
		s-0.5,3.2-1.8,4.1l-13.7,10.1l43.2-4.9c2.4-0.3,4.6,1.5,4.9,4c0.3,2.5-1.5,4.7-3.9,5l-59.8,6.7c-2,0.2-3.9-0.9-4.6-2.8
		c-0.7-1.9-0.1-4.1,1.5-5.3l20.9-15.5l-23.8-10.4c-1.8-0.8-2.9-2.8-2.6-4.8C415.3,391.1,416.9,389.6,418.9,389.3z"/>
	<path class="st3" d="M420.1,357.5l60.1,3.2c2.4,0.1,4.3,2.2,4.2,4.7c-0.1,2.5-2.2,4.4-4.6,4.3l-60.1-3.2c-2.4-0.1-4.3-2.2-4.2-4.7
		C415.5,359.3,417.6,357.4,420.1,357.5z"/>
	<path class="st3" d="M439.5,315.8l-2.1-0.4c-3.7-0.7-7.4,1.7-8.1,5.5c-0.8,3.8,1.7,7.5,5.4,8.2l36.9,7.3c3.7,0.7,7.4-1.7,8.1-5.5
		c0.8-3.8-1.7-7.5-5.4-8.2l-9.6-1.9l-0.5,2.6c-0.5,2.4-2.8,4-5.2,3.5c-2.4-0.5-3.9-2.8-3.5-5.3l1.4-7c0.5-2.4,2.8-4,5.2-3.5l14,2.8
		c8.5,1.7,14,10.1,12.3,18.7c-1.7,8.6-10,14.3-18.5,12.6l-36.9-7.3c-8.5-1.7-14-10.1-12.3-18.7c1.7-8.6,10-14.3,18.5-12.6l2.1,0.4
		c2.4,0.5,3.9,2.8,3.5,5.3C444.2,314.7,441.9,316.2,439.5,315.8z"/>
	<path class="st3" d="M447,251.7l45.3,18.3c8,3.3,11.9,12.5,8.6,20.7c-3.3,8.2-12.5,12.2-20.5,8.9L435,281.4
		c-2.3-0.9-3.3-3.5-2.4-5.8c0.9-2.3,3.5-3.4,5.8-2.5l45.3,18.3c3.5,1.4,7.6-0.3,9-3.9s-0.2-7.6-3.7-9.1l-45.3-18.3
		c-2.3-0.9-3.3-3.5-2.4-5.8C442.2,251.9,444.7,250.8,447,251.7z"/>
	<path class="st3" d="M538.2,118.3l51,55.6c1.6,1.8,1.5,4.6-0.3,6.3c-1.8,1.7-4.6,1.6-6.3-0.2l-39.7-43.3c1.9,8.6,4.1,18.6,5.5,25
		c0,0,0,0,0,0c0,0,0,0,0,0.1c0,0,0,0.1,0,0.1c0,0.1,0,0.2,0,0.3c0,0.1,0,0.1,0,0.2c0,0.1,0,0.2,0,0.3c0,0.1,0,0.1,0,0.2
		c0,0.1,0,0.2,0,0.2c0,0.1,0,0.1,0,0.2c0,0.1,0,0.1,0,0.2c0,0.1,0,0.2-0.1,0.3c0,0.1,0,0.1,0,0.2c0,0.1-0.1,0.2-0.1,0.3
		c0,0,0,0.1,0,0.1c0,0,0,0,0,0c0,0.1-0.1,0.2-0.1,0.3c0,0.1,0,0.1-0.1,0.2c0,0.1-0.1,0.1-0.1,0.2c0,0.1-0.1,0.1-0.1,0.2
		c0,0,0,0,0,0.1c-0.2,0.3-0.4,0.6-0.7,0.8c-0.3,0.3-0.7,0.6-1.2,0.8c0,0,0,0,0,0c-0.1,0-0.2,0.1-0.2,0.1c-0.1,0-0.1,0-0.2,0.1
		c-0.1,0-0.1,0-0.2,0.1c-0.1,0-0.2,0.1-0.3,0.1c0,0,0,0,0,0c0,0-0.1,0-0.1,0c-0.1,0-0.2,0-0.3,0c-0.1,0-0.1,0-0.2,0
		c-0.1,0-0.2,0-0.3,0c-0.1,0-0.1,0-0.2,0c-0.1,0-0.2,0-0.2,0c-0.1,0-0.1,0-0.2,0c-0.1,0-0.1,0-0.2,0c-0.1,0-0.2,0-0.2-0.1
		c-0.1,0-0.1,0-0.2,0c-0.1,0-0.2-0.1-0.3-0.1c0,0-0.1,0-0.1,0l-19.8-7.4c-0.1,0-0.1,0-0.2-0.1c-1.1-0.5-2.2-0.8-3.2-1.1l33,36
		c9,9.8,12,19,10.3,31.8c-0.1,1.1-0.7,2-1.4,2.7c-0.9,0.9-2.2,1.3-3.6,1.2c-2.4-0.3-4.2-2.5-3.8-4.9c1.3-10.2-0.9-16.9-8.1-24.7
		l-38.2-41.7c-4.5,1.7-8,5.2-10,9.2c-3.7,7.2-3.2,16.9,6.1,22.2c6.1,3.5,13.7,1.2,16.6,0.1c2.3-0.9,4.9,0.2,5.7,2.5
		c0.7,1.7,0.1,3.7-1.2,4.9c-0.4,0.4-0.9,0.7-1.4,0.9c-4.2,1.6-14.8,4.8-24.3-0.6c-14.3-8.2-14.9-23.3-9.5-33.9
		c5.7-11.2,19.6-19.9,36.5-12.8l12.1,4.5c-3-13.9-7.4-33.1-7.4-33.3c-0.4-2,0.5-4,2.3-5C534.6,116.5,536.8,116.9,538.2,118.3z"/>
	<path class="st3" d="M628.3,160.4c-1.9,1.6-4.7,1.4-6.3-0.5l-9.1-10.7l-12,6.1l3.2,13.7c0.5,2-0.5,4.1-2.4,5
		c-0.3,0.2-0.6,0.3-1,0.4c-2.4,0.6-4.8-0.9-5.4-3.2l-14.3-60.2c-0.5-2,0.5-4.1,2.4-5c1.9-0.9,4.1-0.5,5.4,1.1l39.9,47.2
		C630.5,156,630.2,158.8,628.3,160.4z M607.1,142.3l-12.9-15.2l4.6,19.4L607.1,142.3z"/>
	<path class="st3" d="M661.4,82.6l16.2,57.9c0.7,2.3-0.7,4.8-3.1,5.5s-4.9-0.7-5.5-3l-11.7-41.9l-4.2,16.5c-0.4,1.5-1.6,2.8-3.2,3.2
		c-1.6,0.4-3.2,0-4.4-1.1l-12.2-11.9l11.7,41.9c0.7,2.3-0.7,4.8-3.1,5.5c-2.4,0.7-4.9-0.7-5.5-3l-16.2-57.9c-0.5-1.9,0.3-4,2.1-5
		c1.8-1,4-0.8,5.4,0.6l18.6,18.2l6.5-25.2c0.5-1.9,2.3-3.3,4.3-3.4C659.1,79.4,660.9,80.7,661.4,82.6z"/>
	<path class="st3" d="M692.5,78.5l7.1,59.7c0.3,2.4-1.5,4.6-3.9,4.9c-2.5,0.3-4.7-1.4-5-3.8l-7.1-59.7c-0.3-2.4,1.5-4.6,3.9-4.9
		C690,74.4,692.2,76.1,692.5,78.5z"/>
	<path class="st3" d="M736.8,90.4l0-2.1c0.1-3.8-3-6.9-6.9-7c-3.9-0.1-7.1,3-7.1,6.7c-0.1,4.1,5.7,11.7,9.8,15.8
		c2.1,2.1,12.6,12.9,12.5,22.2c-0.2,8.7-7.4,15.6-16.3,15.4c-8.8-0.2-15.9-7.3-15.7-16l0-2.1c0-2.4,2.1-4.4,4.6-4.3
		c2.5,0,4.5,2.1,4.4,4.5l0,2.1c-0.1,3.8,3,6.9,6.9,7c3.9,0.1,7.1-3,7.1-6.7c0.1-4.1-5.7-11.7-9.9-15.8c-2.1-2.1-12.6-12.9-12.5-22.2
		c0.2-8.7,7.4-15.6,16.3-15.4c8.8,0.2,15.9,7.3,15.7,16l0,2.1c0,2.4-2.1,4.4-4.6,4.3C738.7,94.9,736.7,92.9,736.8,90.4z"/>
</g>
</svg>
